# xmcd CD database file
#
# Track frame offsets:
#	150
#	26467
#	52185
#	76272
#	96112
#	132475
#	175550
#	198000
#	234360
#
# Disc length: 3789 seconds
#
# Revision: 1
# Processed by: cddbd v1.4PL0 Copyright (c) Steve Scherf et al.
# Submitted via: CDex 1.50beta9
#
DISCID=670ecb09
DTITLE=Bill Evans - Bill Evans Trio - Consecration - The Last Complete Collection
DYEAR=1980
DGENRE=Jazz
TTITLE0=Re - Person I Knew
TTITLE1=Tiffany
TTITLE2=My Foolish Heart
TTITLE3=Theme of M.A.S.H.
TTITLE4=Knit for Mary
TTITLE5=Days of Wine and Roses
TTITLE6=Your Story
TTITLE7=The Two Lonely People
TTITLE8=My Romance
EXTD=YEAR: 1980
EXTT0=
EXTT1=
EXTT2=
EXTT3=
EXTT4=
EXTT5=
EXTT6=
EXTT7=
EXTT8=
PLAYORDER=
